<svg width="48" height="48" viewBox="0 0 48 48" fill="none" xmlns="http://www.w3.org/2000/svg">
<path d="M13.8433 0.41625C11.4793 -0.13875 9.01926 -0.13875 6.65526 0.41625C3.55926 1.14225 1.14225 3.55926 0.41625 6.65526C-0.13875 9.01926 -0.13875 11.4793 0.41625 13.8433C1.14225 16.9393 3.55926 19.3572 6.65526 20.0832C9.01926 20.6372 11.4793 20.6372 13.8433 20.0832C16.9393 19.3572 19.3572 16.9393 20.0832 13.8433C20.6372 11.4793 20.6372 9.01926 20.0832 6.65526C19.3572 3.55926 16.9393 1.14225 13.8433 0.41625Z" fill="url(#paint0_linear_0_1)"/>
<path d="M13.843 27.917C11.479 27.363 9.01902 27.363 6.65502 27.917C3.55902 28.643 1.14201 31.061 0.416006 34.157C-0.138994 36.521 -0.138994 38.9809 0.416006 41.3449C1.14201 44.4409 3.55902 46.858 6.65502 47.584C9.01902 48.139 11.479 48.139 13.843 47.584C16.939 46.858 19.357 44.4409 20.083 41.3449C20.637 38.9809 20.637 36.521 20.083 34.157C19.357 31.061 16.939 28.643 13.843 27.917Z" fill="url(#paint1_linear_0_1)"/>
<path d="M41.3449 0.416006C38.9809 -0.138994 36.521 -0.138994 34.157 0.416006C31.061 1.14201 28.643 3.55902 27.917 6.65502C27.363 9.01902 27.363 11.479 27.917 13.843C28.643 16.939 31.061 19.357 34.157 20.083C36.521 20.637 38.9809 20.637 41.3449 20.083C44.4409 19.357 46.858 16.939 47.584 13.843C48.139 11.479 48.139 9.01902 47.584 6.65502C46.858 3.55902 44.4409 1.14201 41.3449 0.416006Z" fill="url(#paint2_linear_0_1)"/>
<path d="M41.3449 27.917C38.9809 27.363 36.521 27.363 34.157 27.917C31.061 28.643 28.643 31.061 27.917 34.157C27.363 36.521 27.363 38.9809 27.917 41.3449C28.643 44.4409 31.061 46.858 34.157 47.584C36.521 48.139 38.9809 48.139 41.3449 47.584C44.4409 46.858 46.858 44.4409 47.584 41.3449C48.139 38.9809 48.139 36.521 47.584 34.157C46.858 31.061 44.4409 28.643 41.3449 27.917Z" fill="url(#paint3_linear_0_1)"/>
<defs>
<linearGradient id="paint0_linear_0_1" x1="0.000250767" y1="-0.22175" x2="29.2452" y2="57.3112" gradientUnits="userSpaceOnUse">
<stop stop-color="#09C6F9"/>
<stop offset="1" stop-color="#045DE9"/>
</linearGradient>
<linearGradient id="paint1_linear_0_1" x1="6.38574e-06" y1="-0.222025" x2="29.245" y2="57.311" gradientUnits="userSpaceOnUse">
<stop stop-color="#09C6F9"/>
<stop offset="1" stop-color="#045DE9"/>
</linearGradient>
<linearGradient id="paint2_linear_0_1" x1="-2.5524e-05" y1="-0.221994" x2="29.245" y2="57.311" gradientUnits="userSpaceOnUse">
<stop stop-color="#09C6F9"/>
<stop offset="1" stop-color="#045DE9"/>
</linearGradient>
<linearGradient id="paint3_linear_0_1" x1="-2.61389e-05" y1="-0.222024" x2="29.245" y2="57.311" gradientUnits="userSpaceOnUse">
<stop stop-color="#09C6F9"/>
<stop offset="1" stop-color="#045DE9"/>
</linearGradient>
</defs>
</svg>
