<svg width="48" height="48" viewBox="0 0 48 48" fill="none" xmlns="http://www.w3.org/2000/svg">
<path d="M22.085 0V14.406H1.37799C3.56499 7.66801 9.11598 2.50303 16.079 0.866028C18.059 0.400028 20.068 0.112 22.085 0Z" fill="url(#paint0_linear_0_1)"/>
<path d="M25.9152 0.000244141V29.7562H47.5212C48.2822 25.2152 48.1363 20.5603 47.0833 16.0623C45.3193 8.52226 39.4443 2.63427 31.9213 0.866272C29.9423 0.400272 27.9322 0.112244 25.9152 0.000244141Z" fill="url(#paint1_linear_0_1)"/>
<path d="M46.622 33.594H25.915V48C27.932 47.888 29.942 47.6 31.921 47.134C38.884 45.497 44.435 40.332 46.622 33.594Z" fill="url(#paint2_linear_0_1)"/>
<path d="M22.085 48V18.244H0.479003C-0.281997 22.785 -0.136009 27.44 0.916991 31.938C2.68099 39.478 8.55598 45.366 16.079 47.134C18.059 47.6 20.068 47.888 22.085 48Z" fill="url(#paint3_linear_0_1)"/>
<defs>
<linearGradient id="paint0_linear_0_1" x1="-1.11289e-05" y1="-0.222" x2="29.245" y2="57.311" gradientUnits="userSpaceOnUse">
<stop stop-color="#09C6F9"/>
<stop offset="1" stop-color="#045DE9"/>
</linearGradient>
<linearGradient id="paint1_linear_0_1" x1="0.000195703" y1="-0.221755" x2="29.2452" y2="57.3112" gradientUnits="userSpaceOnUse">
<stop stop-color="#09C6F9"/>
<stop offset="1" stop-color="#045DE9"/>
</linearGradient>
<linearGradient id="paint2_linear_0_1" x1="-6.21255e-05" y1="-0.222021" x2="29.2449" y2="57.311" gradientUnits="userSpaceOnUse">
<stop stop-color="#09C6F9"/>
<stop offset="1" stop-color="#045DE9"/>
</linearGradient>
<linearGradient id="paint3_linear_0_1" x1="-2.63213e-06" y1="-0.221969" x2="29.245" y2="57.311" gradientUnits="userSpaceOnUse">
<stop stop-color="#09C6F9"/>
<stop offset="1" stop-color="#045DE9"/>
</linearGradient>
</defs>
</svg>
